<svg width="376" height="229" viewBox="0 0 376 229" fill="none" xmlns="http://www.w3.org/2000/svg">
<path d="M366.82 219.26H31.88C19.25 219.26 9 209.02 9 196.38V140.96C9 128.33 19.24 118.08 31.88 118.08H366.82" stroke="#A9CEAF" stroke-width="18" stroke-miterlimit="10" stroke-linecap="round"/>
<path d="M51.55 112.81C42.97 112.81 35.49 110.76 29.13 106.67C22.77 102.58 18.35 97.03 15.88 90.02L30.53 83.06C32.6 87.6 35.49 91.15 39.19 93.72C42.89 96.29 47.01 97.57 51.55 97.57C55 97.57 57.77 96.78 59.84 95.2C61.91 93.62 62.95 91.55 62.95 88.98C62.95 87.4 62.53 86.09 61.69 85.06C60.85 84.02 59.74 83.14 58.36 82.4C56.98 81.66 55.4 81.05 53.62 80.55L40.45 76.85C33.74 74.98 28.63 71.99 25.13 67.9C21.63 63.81 19.88 59 19.88 53.47C19.88 48.54 21.14 44.22 23.65 40.52C26.16 36.82 29.67 33.93 34.16 31.86C38.65 29.79 43.8 28.75 49.63 28.75C57.23 28.75 63.93 30.58 69.76 34.23C75.58 37.88 79.72 43.01 82.19 49.62L67.39 56.58C66.01 52.93 63.69 50.04 60.43 47.92C57.17 45.8 53.52 44.74 49.48 44.74C46.22 44.74 43.66 45.46 41.78 46.89C39.9 48.32 38.97 50.27 38.97 52.74C38.97 54.12 39.36 55.36 40.15 56.44C40.94 57.53 42.05 58.41 43.48 59.1C44.91 59.79 46.56 60.43 48.44 61.02L61.32 64.87C67.93 66.84 73.03 69.8 76.64 73.75C80.24 77.7 82.04 82.53 82.04 88.25C82.04 93.08 80.76 97.35 78.19 101.05C75.62 104.75 72.07 107.64 67.53 109.71C62.99 111.78 57.66 112.82 51.55 112.82V112.81Z" fill="#F4F4F4"/>
<path d="M97.83 112.81V32.3H116.18V50.21L114.7 47.55C116.57 41.53 119.51 37.34 123.51 34.97C127.51 32.6 132.32 31.42 137.94 31.42H142.68V48.74H135.72C130.19 48.74 125.75 50.42 122.4 53.77C119.04 57.12 117.37 61.86 117.37 67.98V112.82H97.83V112.81Z" fill="#F4F4F4"/>
<path d="M192.11 112.81C184.02 112.81 176.82 110.96 170.5 107.26C164.18 103.56 159.18 98.53 155.48 92.16C151.78 85.8 149.93 78.62 149.93 70.63C149.93 62.64 151.75 55.49 155.41 49.17C159.06 42.86 164.07 37.87 170.43 34.22C176.79 30.57 184.02 28.74 192.11 28.74C197.83 28.74 203.16 29.75 208.09 31.77C213.02 33.79 217.29 36.58 220.89 40.13C224.49 43.68 227.08 47.83 228.66 52.56L211.64 60.11C210.16 55.97 207.67 52.69 204.17 50.27C200.67 47.85 196.64 46.64 192.11 46.64C187.87 46.64 184.09 47.65 180.79 49.67C177.48 51.69 174.89 54.55 173.02 58.25C171.14 61.95 170.21 66.12 170.21 70.76C170.21 75.4 171.15 79.69 173.02 83.34C174.89 86.99 177.48 89.85 180.79 91.92C184.09 93.99 187.87 95.03 192.11 95.03C196.75 95.03 200.77 93.8 204.17 91.33C207.57 88.86 210.06 85.56 211.64 81.41L228.66 89.11C227.08 93.65 224.52 97.72 220.96 101.32C217.41 104.92 213.16 107.74 208.23 109.76C203.3 111.78 197.92 112.79 192.1 112.79L192.11 112.81Z" fill="#F4F4F4"/>
<path d="M242.17 112.04V0H261.71V47.36L259.05 44.55C260.92 39.72 264.01 36.04 268.3 33.52C272.59 31 277.6 29.75 283.32 29.75C289.04 29.75 294.49 31.03 299.08 33.6C303.67 36.17 307.24 39.74 309.81 44.33C312.37 48.92 313.66 54.22 313.66 60.24V112.04H294.27V64.83C294.27 61.28 293.58 58.22 292.2 55.65C290.82 53.09 288.92 51.11 286.5 49.73C284.08 48.35 281.25 47.66 277.99 47.66C274.73 47.66 272.02 48.35 269.55 49.73C267.08 51.11 265.16 53.09 263.78 55.65C262.4 58.22 261.71 61.27 261.71 64.83V112.04H242.17Z" fill="#F4F4F4"/>
<path d="M15.47 146.09H265.98" stroke="#A9CEAF" stroke-width="8" stroke-miterlimit="10"/>
<path d="M16.84 170.9H331.23" stroke="#A9CEAF" stroke-width="8" stroke-miterlimit="10"/>
<path d="M15.47 193.71H221.99" stroke="#A9CEAF" stroke-width="8" stroke-miterlimit="10"/>
<path d="M277.91 158.01C284.493 158.01 289.83 152.673 289.83 146.09C289.83 139.507 284.493 134.17 277.91 134.17C271.327 134.17 265.99 139.507 265.99 146.09C265.99 152.673 271.327 158.01 277.91 158.01Z" stroke="#A9CEAF" stroke-width="6" stroke-miterlimit="10"/>
<path d="M343.15 181.82C349.733 181.82 355.07 176.483 355.07 169.9C355.07 163.317 349.733 157.98 343.15 157.98C336.567 157.98 331.23 163.317 331.23 169.9C331.23 176.483 336.567 181.82 343.15 181.82Z" stroke="#A9CEAF" stroke-width="6" stroke-miterlimit="10"/>
<path d="M228.66 182.29C234.967 182.29 240.08 187.403 240.08 193.71C240.08 200.017 234.967 205.13 228.66 205.13C222.353 205.13 217.24 200.017 217.24 193.71C217.24 187.403 222.353 182.29 228.66 182.29Z" fill="#8FBF98" stroke="#A9CEAF"/>
</svg>
